<?xml version="1.0" encoding="UTF-8"?>
<!-- Generator: Adobe Illustrator 17.0.0, SVG Export Plug-In . SVG Version: 6.00 Build 0)  -->
<!DOCTYPE svg PUBLIC "-//W3C//DTD SVG 1.1//EN" "http://www.w3.org/Graphics/SVG/1.1/DTD/svg11.dtd">
<svg version="1.1" id="OBJECTS" xmlns="http://www.w3.org/2000/svg" xmlns:xlink="http://www.w3.org/1999/xlink" x="0px" y="0px" width="338.901px" height="489.645px" viewBox="0 0 338.901 489.645" enable-background="new 0 0 338.901 489.645" xml:space="preserve">
<g>
	<rect x="0" y="0" fill="#EFEFEF" width="338.901" height="488.433"/>
	<polygon fill="#54D1B9" points="144.905,436.372 109.23,390.54 167.213,331.071 243.013,375.65  "/>
	<g>
		<polyline fill="#FFC83E" points="0,407.083 144.905,436.372 81.844,355.5 0,407.083   "/>
		<g>
			<g>
				<g>
					<polyline fill="#EFE026" points="0,407.083 0,305.62 81.844,355.5      "/>
				</g>
			</g>
			<g opacity="0.15">
				<linearGradient id="SVGID_1_" gradientUnits="userSpaceOnUse" x1="-0.3699" y1="314.3882" x2="5.6382" y2="308.3802">
					<stop offset="0" style="stop-color:#1D1D1B"/>
					<stop offset="1" style="stop-color:#1D1D1B;stop-opacity:0"/>
				</linearGradient>
				<polygon fill="url(#SVGID_1_)" points="0,314.758 7.371,310.113 3.979,308.046 0,310.553     "/>
			</g>
		</g>
	</g>
	<polygon fill="#299B9B" points="338.901,230.159 338.901,489.003 273.515,438.251  "/>
	<g>
		<polygon fill="#00A4AC" points="72.358,413.809 0,407.124 0,489.003 314.13,489.003   "/>
		<polyline fill="#54D1B9" points="0,489.003 0,407.124 72.358,413.809   "/>
		<g>
			<polyline fill="#299B9B" points="72.358,413.809 314.13,489.003 0,489.003    "/>
		</g>
	</g>
	<g>
		<g>
			<polyline fill="#FFC83E" points="338.442,489.645 338.442,413.168 247.903,448.146    "/>
			<polyline fill="#EFE026" points="338.442,489.645 169.45,489.645 247.903,448.146    "/>
		</g>
	</g>
	<g>
		<polygon fill="#4C4C4C" points="223.783,460.905 247.903,448.146 273.515,438.251 305.849,335.347 144.905,436.372   "/>
	</g>
	<g>
		<g>
			<g>
				<polygon fill="#54D1B9" points="338.901,0.571 265.516,25.038 44.097,76.901 0,100.178 0,0.571     "/>
			</g>
		</g>
	</g>
</g>
</svg>